<mxfile host="app.diagrams.net" modified="2021-05-30T09:56:45.934Z" agent="5.0 (Macintosh; Intel Mac OS X 10_14_6) AppleWebKit/605.1.15 (KHTML, like Gecko) Version/12.1.2 Safari/605.1.15" etag="uw9VqFIJkd4o4MBL7WxX" version="14.6.13" type="github">
  <diagram id="C5RBs43oDa-KdzZeNtuy" name="Page-1">
    <mxGraphModel dx="2687" dy="2329" grid="1" gridSize="10" guides="1" tooltips="1" connect="1" arrows="1" fold="1" page="1" pageScale="1" pageWidth="827" pageHeight="1169" math="0" shadow="0">
      <root>
        <mxCell id="WIyWlLk6GJQsqaUBKTNV-0" />
        <mxCell id="WIyWlLk6GJQsqaUBKTNV-1" parent="WIyWlLk6GJQsqaUBKTNV-0" />
        <mxCell id="oZ6JHQLcym4HzN63GMZt-2" value="да" style="edgeStyle=orthogonalEdgeStyle;rounded=0;orthogonalLoop=1;jettySize=auto;html=1;" edge="1" parent="WIyWlLk6GJQsqaUBKTNV-1" source="WIyWlLk6GJQsqaUBKTNV-3" target="oZ6JHQLcym4HzN63GMZt-1">
          <mxGeometry relative="1" as="geometry" />
        </mxCell>
        <mxCell id="WIyWlLk6GJQsqaUBKTNV-3" value="Возраст &amp;nbsp;больше 8 лет?&amp;nbsp;" style="rounded=1;whiteSpace=wrap;html=1;fontSize=12;glass=0;strokeWidth=1;shadow=0;" parent="WIyWlLk6GJQsqaUBKTNV-1" vertex="1">
          <mxGeometry x="-610" y="300" width="120" height="70" as="geometry" />
        </mxCell>
        <mxCell id="pT0tMkDinoU6irWDerxO-1" value="&lt;h2&gt;Блок схема регистрации спортсмена на гонку.&lt;br&gt;Определение класса по году рождения и имеющимся документам (достижениям).&lt;/h2&gt;&lt;br&gt;Спортсмен вводит следующие данные:&lt;br&gt;&lt;br&gt;1 Фамилия &amp;nbsp;(обязательно)&lt;br&gt;2 Имя&amp;nbsp;(обязательно)&lt;br&gt;3 Отчество&lt;br&gt;4 дата рождения (число месяц год)&amp;nbsp;(обязательно)&lt;br&gt;5 телефон&amp;nbsp;(обязательно) (телефон родителей или тренера если нет у ребенка)&lt;br&gt;6 город&amp;nbsp;&lt;br&gt;7 страна&lt;br&gt;8 название клуба / команды&lt;br&gt;&lt;br&gt;9 спортивные государственные разряды (звание)&lt;br&gt;10 дата выдачи разрядов (число месяц год)&lt;br&gt;&lt;br&gt;11 винкоды (несколько) мототехники (мы можем по винкоду запросить тип техники и кубатуру)&amp;nbsp;&lt;br&gt;12 кубатура (несколько) мототехники&lt;br&gt;13 тип 2т/4т (на все мототехсредства)&lt;br&gt;&lt;br&gt;14 RFID метки если есть (несколько меток на мотоциклах и на шлемах) (мы сами можем считать эти метки на техосмотре и перепроверить качество их считывания и нанесения)&lt;br&gt;15 фотография спортсмена (скорее всего обязательно)&lt;br&gt;&lt;br&gt;по результату будет предоложено и подсвечено жирным класс заезда в котором может участвавать гонщик (можно выбрать и не предложенные)&lt;br&gt;&amp;nbsp;" style="text;html=1;align=left;verticalAlign=middle;resizable=0;points=[];autosize=1;strokeColor=none;" parent="WIyWlLk6GJQsqaUBKTNV-1" vertex="1">
          <mxGeometry x="-610" y="-175" width="1030" height="400" as="geometry" />
        </mxCell>
        <mxCell id="oZ6JHQLcym4HzN63GMZt-31" value="" style="edgeStyle=orthogonalEdgeStyle;rounded=0;orthogonalLoop=1;jettySize=auto;html=1;" edge="1" parent="WIyWlLk6GJQsqaUBKTNV-1" source="oZ6JHQLcym4HzN63GMZt-1" target="oZ6JHQLcym4HzN63GMZt-30">
          <mxGeometry relative="1" as="geometry" />
        </mxCell>
        <mxCell id="oZ6JHQLcym4HzN63GMZt-33" value="да" style="edgeLabel;html=1;align=center;verticalAlign=middle;resizable=0;points=[];" vertex="1" connectable="0" parent="oZ6JHQLcym4HzN63GMZt-31">
          <mxGeometry x="-0.175" y="1" relative="1" as="geometry">
            <mxPoint as="offset" />
          </mxGeometry>
        </mxCell>
        <mxCell id="oZ6JHQLcym4HzN63GMZt-1" value="Возраст &amp;nbsp;больше 11 лет?&amp;nbsp;" style="rounded=1;whiteSpace=wrap;html=1;fontSize=12;glass=0;strokeWidth=1;shadow=0;" vertex="1" parent="WIyWlLk6GJQsqaUBKTNV-1">
          <mxGeometry x="-410" y="300" width="120" height="70" as="geometry" />
        </mxCell>
        <mxCell id="oZ6JHQLcym4HzN63GMZt-38" value="" style="edgeStyle=orthogonalEdgeStyle;rounded=0;orthogonalLoop=1;jettySize=auto;html=1;" edge="1" parent="WIyWlLk6GJQsqaUBKTNV-1" source="oZ6JHQLcym4HzN63GMZt-3" target="oZ6JHQLcym4HzN63GMZt-37">
          <mxGeometry relative="1" as="geometry" />
        </mxCell>
        <mxCell id="oZ6JHQLcym4HzN63GMZt-47" value="да" style="edgeLabel;html=1;align=center;verticalAlign=middle;resizable=0;points=[];" vertex="1" connectable="0" parent="oZ6JHQLcym4HzN63GMZt-38">
          <mxGeometry x="-0.1091" y="2" relative="1" as="geometry">
            <mxPoint as="offset" />
          </mxGeometry>
        </mxCell>
        <mxCell id="oZ6JHQLcym4HzN63GMZt-3" value="Возраст &amp;nbsp;больше 13 лет?" style="rounded=1;whiteSpace=wrap;html=1;fontSize=12;glass=0;strokeWidth=1;shadow=0;" vertex="1" parent="WIyWlLk6GJQsqaUBKTNV-1">
          <mxGeometry y="300" width="120" height="70" as="geometry" />
        </mxCell>
        <mxCell id="oZ6JHQLcym4HzN63GMZt-8" value="" style="edgeStyle=orthogonalEdgeStyle;rounded=0;orthogonalLoop=1;jettySize=auto;html=1;" edge="1" parent="WIyWlLk6GJQsqaUBKTNV-1" source="oZ6JHQLcym4HzN63GMZt-5" target="oZ6JHQLcym4HzN63GMZt-7">
          <mxGeometry relative="1" as="geometry" />
        </mxCell>
        <mxCell id="oZ6JHQLcym4HzN63GMZt-17" value="да" style="edgeLabel;html=1;align=center;verticalAlign=middle;resizable=0;points=[];" vertex="1" connectable="0" parent="oZ6JHQLcym4HzN63GMZt-8">
          <mxGeometry y="1" relative="1" as="geometry">
            <mxPoint as="offset" />
          </mxGeometry>
        </mxCell>
        <mxCell id="oZ6JHQLcym4HzN63GMZt-5" value="Возраст &amp;nbsp;больше 15 лет?" style="rounded=1;whiteSpace=wrap;html=1;fontSize=12;glass=0;strokeWidth=1;shadow=0;" vertex="1" parent="WIyWlLk6GJQsqaUBKTNV-1">
          <mxGeometry x="460" y="300" width="120" height="70" as="geometry" />
        </mxCell>
        <mxCell id="oZ6JHQLcym4HzN63GMZt-10" value="" style="edgeStyle=orthogonalEdgeStyle;rounded=0;orthogonalLoop=1;jettySize=auto;html=1;" edge="1" parent="WIyWlLk6GJQsqaUBKTNV-1" source="oZ6JHQLcym4HzN63GMZt-7" target="oZ6JHQLcym4HzN63GMZt-9">
          <mxGeometry relative="1" as="geometry" />
        </mxCell>
        <mxCell id="oZ6JHQLcym4HzN63GMZt-18" value="да" style="edgeLabel;html=1;align=center;verticalAlign=middle;resizable=0;points=[];" vertex="1" connectable="0" parent="oZ6JHQLcym4HzN63GMZt-10">
          <mxGeometry x="0.05" relative="1" as="geometry">
            <mxPoint as="offset" />
          </mxGeometry>
        </mxCell>
        <mxCell id="oZ6JHQLcym4HzN63GMZt-7" value="Возраст &amp;nbsp;больше 16&lt;br&gt;&amp;nbsp;лет?" style="rounded=1;whiteSpace=wrap;html=1;fontSize=12;glass=0;strokeWidth=1;shadow=0;" vertex="1" parent="WIyWlLk6GJQsqaUBKTNV-1">
          <mxGeometry x="660" y="300" width="120" height="70" as="geometry" />
        </mxCell>
        <mxCell id="oZ6JHQLcym4HzN63GMZt-12" value="" style="edgeStyle=orthogonalEdgeStyle;rounded=0;orthogonalLoop=1;jettySize=auto;html=1;" edge="1" parent="WIyWlLk6GJQsqaUBKTNV-1" source="oZ6JHQLcym4HzN63GMZt-9" target="oZ6JHQLcym4HzN63GMZt-11">
          <mxGeometry relative="1" as="geometry" />
        </mxCell>
        <mxCell id="oZ6JHQLcym4HzN63GMZt-19" value="да" style="edgeLabel;html=1;align=center;verticalAlign=middle;resizable=0;points=[];" vertex="1" connectable="0" parent="oZ6JHQLcym4HzN63GMZt-12">
          <mxGeometry x="-0.15" y="-1" relative="1" as="geometry">
            <mxPoint as="offset" />
          </mxGeometry>
        </mxCell>
        <mxCell id="oZ6JHQLcym4HzN63GMZt-9" value="Возраст &amp;nbsp;больше 17 лет?" style="rounded=1;whiteSpace=wrap;html=1;fontSize=12;glass=0;strokeWidth=1;shadow=0;" vertex="1" parent="WIyWlLk6GJQsqaUBKTNV-1">
          <mxGeometry x="860" y="300" width="120" height="70" as="geometry" />
        </mxCell>
        <mxCell id="oZ6JHQLcym4HzN63GMZt-14" value="" style="edgeStyle=orthogonalEdgeStyle;rounded=0;orthogonalLoop=1;jettySize=auto;html=1;" edge="1" parent="WIyWlLk6GJQsqaUBKTNV-1" source="oZ6JHQLcym4HzN63GMZt-11" target="oZ6JHQLcym4HzN63GMZt-13">
          <mxGeometry relative="1" as="geometry" />
        </mxCell>
        <mxCell id="oZ6JHQLcym4HzN63GMZt-20" value="да" style="edgeLabel;html=1;align=center;verticalAlign=middle;resizable=0;points=[];" vertex="1" connectable="0" parent="oZ6JHQLcym4HzN63GMZt-14">
          <mxGeometry x="-0.125" y="2" relative="1" as="geometry">
            <mxPoint as="offset" />
          </mxGeometry>
        </mxCell>
        <mxCell id="oZ6JHQLcym4HzN63GMZt-11" value="Возраст &amp;nbsp;больше 18 лет?" style="rounded=1;whiteSpace=wrap;html=1;fontSize=12;glass=0;strokeWidth=1;shadow=0;" vertex="1" parent="WIyWlLk6GJQsqaUBKTNV-1">
          <mxGeometry x="1060" y="300" width="120" height="70" as="geometry" />
        </mxCell>
        <mxCell id="oZ6JHQLcym4HzN63GMZt-13" value="Возраст &amp;nbsp;больше 35&lt;br&gt;лет?" style="rounded=1;whiteSpace=wrap;html=1;fontSize=12;glass=0;strokeWidth=1;shadow=0;" vertex="1" parent="WIyWlLk6GJQsqaUBKTNV-1">
          <mxGeometry x="1260" y="300" width="120" height="70" as="geometry" />
        </mxCell>
        <mxCell id="oZ6JHQLcym4HzN63GMZt-21" value="&lt;span style=&quot;font-size: medium&quot;&gt;«50 см&lt;/span&gt;&lt;sup&gt;3&lt;/sup&gt;&lt;span style=&quot;font-size: medium&quot;&gt;» – мотоциклы используются в первенствах начинающих спортсменов возрастом 5-8 лет. Оснащаются автоматической трансмиссией.&lt;/span&gt;" style="rounded=1;whiteSpace=wrap;html=1;fontSize=12;glass=0;strokeWidth=1;shadow=0;" vertex="1" parent="WIyWlLk6GJQsqaUBKTNV-1">
          <mxGeometry x="-810" y="470" width="320" height="240" as="geometry" />
        </mxCell>
        <mxCell id="oZ6JHQLcym4HzN63GMZt-27" value="&lt;span style=&quot;font-size: medium&quot;&gt;«65» – первенства среди мальчиков 8-12 лет. У этих и более мощных машин трансмиссия исключительно механическая.&lt;/span&gt;" style="rounded=1;whiteSpace=wrap;html=1;fontSize=12;glass=0;strokeWidth=1;shadow=0;" vertex="1" parent="WIyWlLk6GJQsqaUBKTNV-1">
          <mxGeometry x="-610" y="740" width="520" height="240" as="geometry" />
        </mxCell>
        <mxCell id="oZ6JHQLcym4HzN63GMZt-32" value="" style="edgeStyle=orthogonalEdgeStyle;rounded=0;orthogonalLoop=1;jettySize=auto;html=1;" edge="1" parent="WIyWlLk6GJQsqaUBKTNV-1" source="oZ6JHQLcym4HzN63GMZt-30" target="oZ6JHQLcym4HzN63GMZt-3">
          <mxGeometry relative="1" as="geometry" />
        </mxCell>
        <mxCell id="oZ6JHQLcym4HzN63GMZt-34" value="да" style="edgeLabel;html=1;align=center;verticalAlign=middle;resizable=0;points=[];" vertex="1" connectable="0" parent="oZ6JHQLcym4HzN63GMZt-32">
          <mxGeometry x="-0.0444" relative="1" as="geometry">
            <mxPoint as="offset" />
          </mxGeometry>
        </mxCell>
        <mxCell id="oZ6JHQLcym4HzN63GMZt-30" value="Возраст &amp;nbsp;больше 12 лет?&amp;nbsp;" style="rounded=1;whiteSpace=wrap;html=1;fontSize=12;glass=0;strokeWidth=1;shadow=0;" vertex="1" parent="WIyWlLk6GJQsqaUBKTNV-1">
          <mxGeometry x="-210" y="300" width="120" height="70" as="geometry" />
        </mxCell>
        <mxCell id="oZ6JHQLcym4HzN63GMZt-35" value="&lt;span style=&quot;font-size: medium&quot;&gt;85» – первенства среди юношей возрастом 11-14 лет. Допускаются модели с 2-тактными двигателями объемом 85 см&lt;/span&gt;&lt;sup&gt;3&lt;/sup&gt;&lt;span style=&quot;font-size: medium&quot;&gt;и 4-тактные объемом 125 см.&lt;/span&gt;" style="rounded=1;whiteSpace=wrap;html=1;fontSize=12;glass=0;strokeWidth=1;shadow=0;" vertex="1" parent="WIyWlLk6GJQsqaUBKTNV-1">
          <mxGeometry x="-420" y="1190" width="770" height="245" as="geometry" />
        </mxCell>
        <mxCell id="oZ6JHQLcym4HzN63GMZt-40" value="" style="edgeStyle=orthogonalEdgeStyle;rounded=0;orthogonalLoop=1;jettySize=auto;html=1;entryX=0;entryY=0.5;entryDx=0;entryDy=0;" edge="1" parent="WIyWlLk6GJQsqaUBKTNV-1" source="oZ6JHQLcym4HzN63GMZt-37" target="oZ6JHQLcym4HzN63GMZt-5">
          <mxGeometry relative="1" as="geometry">
            <mxPoint x="400" y="335" as="targetPoint" />
          </mxGeometry>
        </mxCell>
        <mxCell id="oZ6JHQLcym4HzN63GMZt-49" value="да" style="edgeLabel;html=1;align=center;verticalAlign=middle;resizable=0;points=[];" vertex="1" connectable="0" parent="oZ6JHQLcym4HzN63GMZt-40">
          <mxGeometry x="-0.1091" y="-2" relative="1" as="geometry">
            <mxPoint as="offset" />
          </mxGeometry>
        </mxCell>
        <mxCell id="oZ6JHQLcym4HzN63GMZt-37" value="Возраст &amp;nbsp;больше 14&amp;nbsp;лет?" style="rounded=1;whiteSpace=wrap;html=1;fontSize=12;glass=0;strokeWidth=1;shadow=0;" vertex="1" parent="WIyWlLk6GJQsqaUBKTNV-1">
          <mxGeometry x="230" y="300" width="120" height="70" as="geometry" />
        </mxCell>
        <mxCell id="oZ6JHQLcym4HzN63GMZt-41" value="&lt;span style=&quot;font-size: medium&quot;&gt;«125» – первенства юношей возрастом 13-17 лет. Двигатели исключительно 2-тактные, объем 100-125 см&lt;/span&gt;&lt;sup&gt;3&lt;/sup&gt;&lt;span style=&quot;font-size: medium&quot;&gt;. Этот же класс относится и к чемпионатам, в том числе, Чемпионату России. В этом случае к участию допускаются юноши от 15 лет. Мотоциклы могут иметь 2-тактные моторы объемом 100-125 см&lt;/span&gt;&lt;sup&gt;3&lt;/sup&gt;&lt;span style=&quot;font-size: medium&quot;&gt;или 4-тактные объемом 175-250 см3.&lt;/span&gt;" style="rounded=1;whiteSpace=wrap;html=1;fontSize=12;glass=0;strokeWidth=1;shadow=0;" vertex="1" parent="WIyWlLk6GJQsqaUBKTNV-1">
          <mxGeometry x="-20" y="1978" width="1000" height="360" as="geometry" />
        </mxCell>
        <mxCell id="oZ6JHQLcym4HzN63GMZt-53" value="" style="edgeStyle=orthogonalEdgeStyle;rounded=0;orthogonalLoop=1;jettySize=auto;html=1;" edge="1" parent="WIyWlLk6GJQsqaUBKTNV-1" source="oZ6JHQLcym4HzN63GMZt-51" target="WIyWlLk6GJQsqaUBKTNV-3">
          <mxGeometry relative="1" as="geometry" />
        </mxCell>
        <mxCell id="oZ6JHQLcym4HzN63GMZt-51" value="Возраст &amp;nbsp;больше 5 лет?&amp;nbsp;" style="rounded=1;whiteSpace=wrap;html=1;fontSize=12;glass=0;strokeWidth=1;shadow=0;" vertex="1" parent="WIyWlLk6GJQsqaUBKTNV-1">
          <mxGeometry x="-810" y="300" width="120" height="70" as="geometry" />
        </mxCell>
        <mxCell id="oZ6JHQLcym4HzN63GMZt-54" value="&lt;span style=&quot;font-size: medium&quot;&gt;«250» – чемпионаты среди юношей от 15 лет и мужчин. Допускаются мотоциклы с 2-тактнымыми двигателями объемом 175-250 см&lt;/span&gt;&lt;sup&gt;3&lt;/sup&gt;&lt;span style=&quot;font-size: medium&quot;&gt;и 4-тактные объемом 290-450 см&lt;/span&gt;&lt;sup&gt;3&lt;/sup&gt;&lt;span style=&quot;font-size: medium&quot;&gt;. Условно, этот класс можно считать основным, так как соревнования в нем проводятся чаще всего.&lt;/span&gt;" style="rounded=1;whiteSpace=wrap;html=1;fontSize=12;glass=0;strokeWidth=1;shadow=0;" vertex="1" parent="WIyWlLk6GJQsqaUBKTNV-1">
          <mxGeometry x="460" y="440" width="1060" height="360" as="geometry" />
        </mxCell>
        <mxCell id="oZ6JHQLcym4HzN63GMZt-56" value="&lt;span style=&quot;font-size: medium&quot;&gt;«500» – юноши и мужчины от 15 лет на 2-тактных мотоциклах с объемом двигателя 250-300 см&lt;/span&gt;&lt;sup&gt;3&lt;/sup&gt;&lt;span style=&quot;font-size: medium&quot;&gt;и 4-тактных 350-500 см&lt;/span&gt;&lt;sup&gt;3&lt;/sup&gt;&lt;span style=&quot;font-size: medium&quot;&gt;.&lt;/span&gt;" style="rounded=1;whiteSpace=wrap;html=1;fontSize=12;glass=0;strokeWidth=1;shadow=0;" vertex="1" parent="WIyWlLk6GJQsqaUBKTNV-1">
          <mxGeometry x="450" y="1075" width="1060" height="360" as="geometry" />
        </mxCell>
        <mxCell id="oZ6JHQLcym4HzN63GMZt-60" value="да" style="edgeStyle=orthogonalEdgeStyle;rounded=0;orthogonalLoop=1;jettySize=auto;html=1;" edge="1" parent="WIyWlLk6GJQsqaUBKTNV-1" source="oZ6JHQLcym4HzN63GMZt-58" target="oZ6JHQLcym4HzN63GMZt-56">
          <mxGeometry relative="1" as="geometry">
            <Array as="points">
              <mxPoint x="991" y="1060" />
              <mxPoint x="991" y="1060" />
            </Array>
          </mxGeometry>
        </mxCell>
        <mxCell id="oZ6JHQLcym4HzN63GMZt-61" value="нет" style="edgeStyle=orthogonalEdgeStyle;rounded=0;orthogonalLoop=1;jettySize=auto;html=1;" edge="1" parent="WIyWlLk6GJQsqaUBKTNV-1" source="oZ6JHQLcym4HzN63GMZt-58" target="oZ6JHQLcym4HzN63GMZt-54">
          <mxGeometry relative="1" as="geometry" />
        </mxCell>
        <mxCell id="oZ6JHQLcym4HzN63GMZt-58" value="&lt;font size=&quot;3&quot;&gt;кубатура &amp;gt;= (250-2т / 350-4т)?&lt;/font&gt;" style="rounded=1;whiteSpace=wrap;html=1;fontSize=12;glass=0;strokeWidth=1;shadow=0;" vertex="1" parent="WIyWlLk6GJQsqaUBKTNV-1">
          <mxGeometry x="842.5" y="890" width="295" height="100" as="geometry" />
        </mxCell>
        <mxCell id="oZ6JHQLcym4HzN63GMZt-62" value="&lt;span style=&quot;font-size: medium&quot;&gt;«250 2Т» – только двухтактные машины с мотором 250-300 см. Возраст участника – от 15 лет. Заезды всегда проводятся отдельно от класса «250».&lt;/span&gt;" style="rounded=1;whiteSpace=wrap;html=1;fontSize=12;glass=0;strokeWidth=1;shadow=0;" vertex="1" parent="WIyWlLk6GJQsqaUBKTNV-1">
          <mxGeometry x="450" y="1515" width="1060" height="360" as="geometry" />
        </mxCell>
        <mxCell id="oZ6JHQLcym4HzN63GMZt-64" value="&lt;span style=&quot;font-size: medium&quot;&gt;«Открытый» – мужчины от 35 лет на 2-тактным мотоциклах с мотором 100-500 см&lt;/span&gt;&lt;sup&gt;3&lt;/sup&gt;&lt;span style=&quot;font-size: medium&quot;&gt;или 4-тактных с двигателем 175-650 см&lt;/span&gt;&lt;sup&gt;3&lt;/sup&gt;&lt;span style=&quot;font-size: medium&quot;&gt;.&lt;/span&gt;" style="rounded=1;whiteSpace=wrap;html=1;fontSize=12;glass=0;strokeWidth=1;shadow=0;" vertex="1" parent="WIyWlLk6GJQsqaUBKTNV-1">
          <mxGeometry x="1241" y="1990" width="1000" height="360" as="geometry" />
        </mxCell>
        <mxCell id="oZ6JHQLcym4HzN63GMZt-66" value="&lt;font size=&quot;3&quot;&gt;возраст больше 16 лет - можешь ехать пассажиром в мотоколяске&lt;br&gt;&lt;br&gt;возраст больше 18 лет - модешь быть водителем мотоколяски&lt;br&gt;&lt;br&gt;&lt;br&gt;&lt;/font&gt;&lt;span style=&quot;font-size: medium&quot;&gt;«750 см&lt;/span&gt;&lt;sup&gt;3&lt;/sup&gt;&lt;span style=&quot;font-size: medium&quot;&gt;» – отдельный вид мотокросса на мотоциклах с колясками. Возраст спортсменов-водителей – от 18 лет, колясочников – от 16 лет. Допустимые модели – любые с мотором до 750 см&lt;/span&gt;&lt;sup&gt;3&lt;/sup&gt;&lt;span style=&quot;font-size: medium&quot;&gt;.&lt;/span&gt;&lt;font size=&quot;3&quot;&gt;&lt;br&gt;&lt;/font&gt;" style="rounded=1;whiteSpace=wrap;html=1;fontSize=12;glass=0;strokeWidth=1;shadow=0;" vertex="1" parent="WIyWlLk6GJQsqaUBKTNV-1">
          <mxGeometry x="660" y="2510" width="1000" height="360" as="geometry" />
        </mxCell>
      </root>
    </mxGraphModel>
  </diagram>
</mxfile>
